<svg width="1500" height="500" viewBox="0 0 1500 500" fill="none" xmlns="http://www.w3.org/2000/svg">
<rect width="1500" height="500" fill="#F3F4F6"/>
<circle cx="750.5" cy="250.5" r="48.5" fill="#6366F1"/>
<path d="M834 250.5C834 296.616 796.616 334 750.5 334C704.384 334 667 296.616 667 250.5C667 204.384 704.384 167 750.5 167C796.616 167 834 204.384 834 250.5ZM675.35 250.5C675.35 292.004 708.996 325.65 750.5 325.65C792.004 325.65 825.65 292.004 825.65 250.5C825.65 208.996 792.004 175.35 750.5 175.35C708.996 175.35 675.35 208.996 675.35 250.5Z" fill="#312E81"/>
<circle cx="692" cy="303" r="15" fill="#6366F1"/>
</svg>
